<?xml version="1.0" encoding="iso-8859-1"?>
<!-- Generator: Adobe Illustrator 18.0.0, SVG Export Plug-In . SVG Version: 6.00 Build 0)  -->
<!DOCTYPE svg PUBLIC "-//W3C//DTD SVG 1.1//EN" "http://www.w3.org/Graphics/SVG/1.1/DTD/svg11.dtd">
<svg version="1.1" id="Capa_1" xmlns="http://www.w3.org/2000/svg" xmlns:xlink="http://www.w3.org/1999/xlink" x="0px" y="0px"
	 viewBox="0 0 60 60" style="enable-background:new 0 0 60 60;" xml:space="preserve">
<g>
	<path d="M33,25.892c-8.822,0-16,7.178-16,16s7.178,16,16,16s16-7.178,16-16S41.822,25.892,33,25.892z M21,48.892
		c-0.552,0-1-0.448-1-1c0-0.552,0.448-1,1-1s1,0.448,1,1C22,48.444,21.552,48.892,21,48.892z M21,42.892c-0.552,0-1-0.448-1-1
		c0-0.552,0.448-1,1-1s1,0.448,1,1C22,42.444,21.552,42.892,21,42.892z M21,36.892c-0.552,0-1-0.448-1-1c0-0.552,0.448-1,1-1
		s1,0.448,1,1C22,36.444,21.552,36.892,21,36.892z M24,51.892c-0.552,0-1-0.448-1-1c0-0.552,0.448-1,1-1s1,0.448,1,1
		C25,51.444,24.552,51.892,24,51.892z M24,45.892c-0.552,0-1-0.448-1-1c0-0.552,0.448-1,1-1s1,0.448,1,1
		C25,45.444,24.552,45.892,24,45.892z M24,39.892c-0.552,0-1-0.448-1-1c0-0.552,0.448-1,1-1s1,0.448,1,1
		C25,39.444,24.552,39.892,24,39.892z M24,33.892c-0.552,0-1-0.448-1-1c0-0.552,0.448-1,1-1s1,0.448,1,1
		C25,33.444,24.552,33.892,24,33.892z M27,54.892c-0.552,0-1-0.448-1-1c0-0.552,0.448-1,1-1s1,0.448,1,1
		C28,54.444,27.552,54.892,27,54.892z M27,48.892c-0.552,0-1-0.448-1-1c0-0.552,0.448-1,1-1s1,0.448,1,1
		C28,48.444,27.552,48.892,27,48.892z M27,42.892c-0.552,0-1-0.448-1-1c0-0.552,0.448-1,1-1s1,0.448,1,1
		C28,42.444,27.552,42.892,27,42.892z M27,36.892c-0.552,0-1-0.448-1-1c0-0.552,0.448-1,1-1s1,0.448,1,1
		C28,36.444,27.552,36.892,27,36.892z M27,30.892c-0.552,0-1-0.448-1-1c0-0.552,0.448-1,1-1s1,0.448,1,1
		C28,30.444,27.552,30.892,27,30.892z M30,51.892c-0.552,0-1-0.448-1-1c0-0.552,0.448-1,1-1s1,0.448,1,1
		C31,51.444,30.552,51.892,30,51.892z M30,45.892c-0.552,0-1-0.448-1-1c0-0.552,0.448-1,1-1s1,0.448,1,1
		C31,45.444,30.552,45.892,30,45.892z M30,39.892c-0.552,0-1-0.448-1-1c0-0.552,0.448-1,1-1s1,0.448,1,1
		C31,39.444,30.552,39.892,30,39.892z M30,33.892c-0.552,0-1-0.448-1-1c0-0.552,0.448-1,1-1s1,0.448,1,1
		C31,33.444,30.552,33.892,30,33.892z M33,54.892c-0.552,0-1-0.448-1-1c0-0.552,0.448-1,1-1s1,0.448,1,1
		C34,54.444,33.552,54.892,33,54.892z M33,48.892c-0.552,0-1-0.448-1-1c0-0.552,0.448-1,1-1s1,0.448,1,1
		C34,48.444,33.552,48.892,33,48.892z M33,42.892c-0.552,0-1-0.448-1-1c0-0.552,0.448-1,1-1s1,0.448,1,1
		C34,42.444,33.552,42.892,33,42.892z M33,36.892c-0.552,0-1-0.448-1-1c0-0.552,0.448-1,1-1s1,0.448,1,1
		C34,36.444,33.552,36.892,33,36.892z M33,30.892c-0.552,0-1-0.448-1-1c0-0.552,0.448-1,1-1s1,0.448,1,1
		C34,30.444,33.552,30.892,33,30.892z M36,51.892c-0.552,0-1-0.448-1-1c0-0.552,0.448-1,1-1s1,0.448,1,1
		C37,51.444,36.552,51.892,36,51.892z M36,45.892c-0.552,0-1-0.448-1-1c0-0.552,0.448-1,1-1s1,0.448,1,1
		C37,45.444,36.552,45.892,36,45.892z M36,39.892c-0.552,0-1-0.448-1-1c0-0.552,0.448-1,1-1s1,0.448,1,1
		C37,39.444,36.552,39.892,36,39.892z M36,33.892c-0.552,0-1-0.448-1-1c0-0.552,0.448-1,1-1s1,0.448,1,1
		C37,33.444,36.552,33.892,36,33.892z M39,54.892c-0.552,0-1-0.448-1-1c0-0.552,0.448-1,1-1s1,0.448,1,1
		C40,54.444,39.552,54.892,39,54.892z M39,48.892c-0.552,0-1-0.448-1-1c0-0.552,0.448-1,1-1s1,0.448,1,1
		C40,48.444,39.552,48.892,39,48.892z M39,42.892c-0.552,0-1-0.448-1-1c0-0.552,0.448-1,1-1s1,0.448,1,1
		C40,42.444,39.552,42.892,39,42.892z M39,36.892c-0.552,0-1-0.448-1-1c0-0.552,0.448-1,1-1s1,0.448,1,1
		C40,36.444,39.552,36.892,39,36.892z M39,30.892c-0.552,0-1-0.448-1-1c0-0.552,0.448-1,1-1s1,0.448,1,1
		C40,30.444,39.552,30.892,39,30.892z M42,51.892c-0.552,0-1-0.448-1-1c0-0.552,0.448-1,1-1s1,0.448,1,1
		C43,51.444,42.552,51.892,42,51.892z M42,45.892c-0.552,0-1-0.448-1-1c0-0.552,0.448-1,1-1s1,0.448,1,1
		C43,45.444,42.552,45.892,42,45.892z M42,39.892c-0.552,0-1-0.448-1-1c0-0.552,0.448-1,1-1s1,0.448,1,1
		C43,39.444,42.552,39.892,42,39.892z M42,33.892c-0.552,0-1-0.448-1-1c0-0.552,0.448-1,1-1s1,0.448,1,1
		C43,33.444,42.552,33.892,42,33.892z M45,48.892c-0.552,0-1-0.448-1-1c0-0.552,0.448-1,1-1s1,0.448,1,1
		C46,48.444,45.552,48.892,45,48.892z M45,42.892c-0.552,0-1-0.448-1-1c0-0.552,0.448-1,1-1s1,0.448,1,1
		C46,42.444,45.552,42.892,45,42.892z M46,35.892c0,0.552-0.448,1-1,1s-1-0.448-1-1c0-0.552,0.448-1,1-1S46,35.34,46,35.892z"/>
	<path d="M33,23.892c0.338,0,0.667,0.032,1,0.051v-0.161c0-0.174-0.045-0.345-0.132-0.496L22.054,2.611
		c-0.178-0.311-0.507-0.503-0.865-0.504c-0.001,0-0.002,0-0.003,0c-0.356,0-0.686,0.19-0.865,0.498L0.135,37.39
		c-0.179,0.31-0.18,0.691-0.001,1.001c0.178,0.31,0.509,0.501,0.866,0.501h14.271C16.706,30.393,24.099,23.892,33,23.892z"/>
	<path d="M59,10.892H33c-0.553,0-1,0.448-1,1v4.094l3.604,6.308C35.862,22.741,36,23.257,36,23.782v0.37
		c7.519,1.27,13.459,7.217,14.729,14.74H59c0.553,0,1-0.448,1-1v-26C60,11.34,59.552,10.892,59,10.892z"/>
</g>
<g>
</g>
<g>
</g>
<g>
</g>
<g>
</g>
<g>
</g>
<g>
</g>
<g>
</g>
<g>
</g>
<g>
</g>
<g>
</g>
<g>
</g>
<g>
</g>
<g>
</g>
<g>
</g>
<g>
</g>
</svg>
