{
	"buffers":[{
		"uri":"data:application/octet-stream;base64,",
		"byteLength":8816
	},
	{
		"uri":"data:application/octet-stream;base64,",
		"byteLength":134796
	},
	{
		"uri":"data:application/octet-stream;base64,",
		"byteLength":39960
	}],
	"asset":{
		"version":"2.0",
		"generator":"Created using the official Cinema 4D glTF Exporter 1.000x284978"
	},
	"scenes":[{
		"nodes":[0]
	}],
	"materials":[{
		"pbrMetallicRoughness":{
			"baseColorFactor":[1.0,
			1.0,
			1.0,
			1.0],
			"metallicFactor":1.0,
			"roughnessFactor":1.0
		},
		"emissiveFactor":[0.0,
		0.0,
		0.0],
		"alphaMode":"OPAQUE",
		"doubleSided":false,
		"name":""
	},
	{
		"pbrMetallicRoughness":{
			"baseColorFactor":[1.0,
			1.0,
			1.0,
			1.0],
			"metallicFactor":1.0,
			"roughnessFactor":1.0
		},
		"emissiveFactor":[0.0,
		0.0,
		0.0],
		"alphaMode":"OPAQUE",
		"doubleSided":false,
		"name":""
	},
	{
		"pbrMetallicRoughness":{
			"baseColorFactor":[1.0,
			1.0,
			1.0,
			1.0],
			"metallicFactor":1.0,
			"roughnessFactor":1.0
		},
		"emissiveFactor":[0.0,
		0.0,
		0.0],
		"alphaMode":"OPAQUE",
		"doubleSided":false,
		"name":""
	}],
	"nodes":[{
		"name":"2nd_level",
		"translation":[9.285778999328614,
		5.16696834564209,
		-12.355539321899414],
		"rotation":[3.762912204052782e-9,
		-0.22586502134799958,
		-1.6229487087571216e-8,
		0.9741585850715637],
		"scale":[0.009940000250935555,
		0.009940000250935555,
		0.009940000250935555],
		"children":[1,
		4]
	},
	{
		"name":"left",
		"translation":[5064.607421875,
		-111.18418884277344,
		548.2620239257813],
		"rotation":[-4.22715507042426e-9,
		0.22586502134799958,
		1.4227201639016585e-8,
		0.9741585850715637],
		"scale":[100.60362243652344,
		100.60362243652344,
		100.60362243652344],
		"children":[2,
		3]
	},
	{
		"name":"left-2ndlevelFloor",
		"mesh":0
	},
	{
		"name":"left-2ndlevelWalls",
		"mesh":1
	},
	{
		"name":"right",
		"translation":[-3781.3994140625,
		-144.13523864746095,
		188.19317626953126],
		"rotation":[-7.1418946312462598e-9,
		0.22586502134799958,
		1.6558948656708595e-9,
		0.9741585850715637],
		"scale":[100.60362243652344,
		100.60362243652344,
		100.60362243652344],
		"mesh":2
	}],
	"meshes":[{
		"name":"left-2ndlevelFloor",
		"primitives":[{
			"attributes":{
				"POSITION":1,
				"NORMAL":2,
				"TEXCOORD_0":3
			},
			"indices":0,
			"material":0
		}]
	},
	{
		"name":"left-2ndlevelWalls",
		"primitives":[{
			"attributes":{
				"POSITION":5,
				"NORMAL":6,
				"TEXCOORD_0":7
			},
			"indices":4,
			"material":1
		}]
	},
	{
		"name":"right",
		"primitives":[{
			"attributes":{
				"POSITION":9,
				"NORMAL":10,
				"TEXCOORD_0":11
			},
			"indices":8,
			"material":2
		}]
	}],
	"accessors":[{
		"max":[231],
		"bufferView":0,
		"type":"SCALAR",
		"componentType":5123,
		"count":696,
		"byteOffset":0,
		"min":[0]
	},
	{
		"max":[18.573543548583986,
		2.287290096282959,
		26.7336483001709],
		"bufferView":1,
		"type":"VEC3",
		"componentType":5126,
		"count":232,
		"byteOffset":0,
		"min":[-28.702939987182618,
		2.0036213397979738,
		-41.34968948364258]
	},
	{
		"max":[0.8979687690734863,
		1.0,
		0.8979687690734863],
		"bufferView":1,
		"type":"VEC3",
		"componentType":5126,
		"count":232,
		"byteOffset":12,
		"min":[-0.8979687690734863,
		-1.0,
		-0.8979687690734863]
	},
	{
		"max":[1.0,
		1.0],
		"bufferView":1,
		"type":"VEC2",
		"componentType":5126,
		"count":232,
		"byteOffset":24,
		"min":[0.0,
		0.0]
	},
	{
		"max":[3701],
		"bufferView":2,
		"type":"SCALAR",
		"componentType":5123,
		"count":8166,
		"byteOffset":0,
		"min":[0]
	},
	{
		"max":[18.195541381835939,
		8.078644752502442,
		23.26441192626953],
		"bufferView":3,
		"type":"VEC3",
		"componentType":5126,
		"count":3702,
		"byteOffset":0,
		"min":[-28.311500549316408,
		-3.346625804901123,
		-40.90896987915039]
	},
	{
		"max":[0.9997813105583191,
		1.0,
		0.8979687690734863],
		"bufferView":3,
		"type":"VEC3",
		"componentType":5126,
		"count":3702,
		"byteOffset":12,
		"min":[-0.9998437762260437,
		-1.0,
		-0.8998125195503235]
	},
	{
		"max":[1.0,
		1.0],
		"bufferView":3,
		"type":"VEC2",
		"componentType":5126,
		"count":3702,
		"byteOffset":24,
		"min":[0.0,
		0.0]
	},
	{
		"max":[1094],
		"bufferView":4,
		"type":"SCALAR",
		"componentType":5123,
		"count":2460,
		"byteOffset":0,
		"min":[0]
	},
	{
		"max":[23.523569107055665,
		8.414261817932129,
		33.183837890625],
		"bufferView":5,
		"type":"VEC3",
		"componentType":5126,
		"count":1095,
		"byteOffset":0,
		"min":[-28.4954891204834,
		2.3506457805633547,
		-34.54322814941406]
	},
	{
		"max":[0.8979716300964356,
		1.0,
		0.897976815700531],
		"bufferView":5,
		"type":"VEC3",
		"componentType":5126,
		"count":1095,
		"byteOffset":12,
		"min":[-0.8979716300964356,
		-1.0,
		-0.9146266579627991]
	},
	{
		"max":[1.0,
		1.0],
		"bufferView":5,
		"type":"VEC2",
		"componentType":5126,
		"count":1095,
		"byteOffset":24,
		"min":[0.0,
		0.0]
	}],
	"bufferViews":[{
		"buffer":0,
		"byteOffset":0,
		"byteLength":1392,
		"target":34963
	},
	{
		"buffer":0,
		"byteOffset":1392,
		"byteStride":32,
		"byteLength":7424,
		"target":34962
	},
	{
		"buffer":1,
		"byteOffset":0,
		"byteLength":16332,
		"target":34963
	},
	{
		"buffer":1,
		"byteOffset":16332,
		"byteStride":32,
		"byteLength":118464,
		"target":34962
	},
	{
		"buffer":2,
		"byteOffset":0,
		"byteLength":4920,
		"target":34963
	},
	{
		"buffer":2,
		"byteOffset":4920,
		"byteStride":32,
		"byteLength":35040,
		"target":34962
	}]
}