{
	"buffers":[{
		"uri":"data:application/octet-stream;base64,",
		"byteLength":176040
	},
	{
		"uri":"data:application/octet-stream;base64,",
		"byteLength":8816
	},
	{
		"uri":"data:application/octet-stream;base64,",
		"byteLength":6600
	},
	{
		"uri":"data:application/octet-stream;base64,",
		"byteLength":33360
	}],
	"asset":{
		"version":"2.0",
		"generator":"Created using the official Cinema 4D glTF Exporter 1.000x284978"
	},
	"scenes":[{
		"nodes":[0]
	}],
	"materials":[{
		"pbrMetallicRoughness":{
			"baseColorFactor":[1.0,
			1.0,
			1.0,
			1.0],
			"metallicFactor":1.0,
			"roughnessFactor":1.0
		},
		"emissiveFactor":[0.0,
		0.0,
		0.0],
		"alphaMode":"OPAQUE",
		"doubleSided":false,
		"name":""
	},
	{
		"pbrMetallicRoughness":{
			"baseColorFactor":[1.0,
			1.0,
			1.0,
			1.0],
			"metallicFactor":1.0,
			"roughnessFactor":1.0
		},
		"emissiveFactor":[0.0,
		0.0,
		0.0],
		"alphaMode":"OPAQUE",
		"doubleSided":false,
		"name":""
	},
	{
		"pbrMetallicRoughness":{
			"baseColorFactor":[1.0,
			1.0,
			1.0,
			1.0],
			"metallicFactor":1.0,
			"roughnessFactor":1.0
		},
		"emissiveFactor":[0.0,
		0.0,
		0.0],
		"alphaMode":"OPAQUE",
		"doubleSided":false,
		"name":""
	},
	{
		"pbrMetallicRoughness":{
			"baseColorFactor":[1.0,
			1.0,
			1.0,
			1.0],
			"metallicFactor":1.0,
			"roughnessFactor":1.0
		},
		"emissiveFactor":[0.0,
		0.0,
		0.0],
		"alphaMode":"OPAQUE",
		"doubleSided":false,
		"name":""
	}],
	"nodes":[{
		"name":"2nd_level",
		"translation":[9.285778999328614,
		5.16696834564209,
		-12.355539321899414],
		"rotation":[3.762912204052782e-9,
		-0.22586502134799958,
		-1.6229487087571216e-8,
		0.9741585850715637],
		"scale":[0.009940000250935555,
		0.009940000250935555,
		0.009940000250935555],
		"children":[1,
		4]
	},
	{
		"name":"left",
		"translation":[7316.0849609375,
		-81.82052612304688,
		2293.625],
		"rotation":[0.0,
		-0.9275348782539368,
		0.0,
		-0.3737366199493408],
		"scale":[1006.0361938476563,
		1006.0361938476563,
		1006.0361938476563],
		"children":[2,
		3]
	},
	{
		"name":"left walls",
		"translation":[4.598759174346924,
		0.09016702324151993,
		-2.4973809719085695],
		"rotation":[1.9489727165478145e-8,
		0.8191520571708679,
		-3.98389987665837e-9,
		-0.5735764503479004],
		"scale":[0.10000000149011612,
		0.10000000149011612,
		0.10000000149011612],
		"mesh":0
	},
	{
		"name":"left_floor",
		"translation":[1.0324139595031739,
		-0.14854198694229127,
		1.8946499824523926],
		"rotation":[1.9489727165478145e-8,
		0.8191520571708679,
		-3.98389987665837e-9,
		-0.5735764503479004],
		"scale":[0.10000000149011612,
		0.10000000149011612,
		0.10000000149011612],
		"mesh":1
	},
	{
		"name":"right",
		"translation":[-2545.0625,
		-579.0767211914063,
		-2464.171875],
		"rotation":[4.221155260792373e-24,
		-5.665538686387998e-16,
		-7.450580596923828e-9,
		1.0],
		"scale":[1.0,
		1.0,
		1.0],
		"children":[5,
		6]
	},
	{
		"name":"right floor",
		"translation":[-1496.20166015625,
		-4.617958576300096e-13,
		1918.614990234375],
		"rotation":[-1.6543612251060555e-24,
		0.0,
		0.0,
		-1.0],
		"scale":[1.0,
		1.0,
		1.0],
		"mesh":2
	},
	{
		"name":"right walls.1",
		"translation":[-976.47216796875,
		869.8829345703125,
		3386.114990234375],
		"rotation":[-5.856358509248594e-9,
		0.22586502134799958,
		2.4302499568307213e-8,
		0.9741585850715637],
		"scale":[100.60362243652344,
		100.60362243652344,
		100.60362243652344],
		"mesh":3
	}],
	"meshes":[{
		"name":"left walls",
		"primitives":[{
			"attributes":{
				"POSITION":1,
				"NORMAL":2,
				"TEXCOORD_0":3
			},
			"indices":0,
			"material":0
		}]
	},
	{
		"name":"left_floor",
		"primitives":[{
			"attributes":{
				"POSITION":5,
				"NORMAL":6,
				"TEXCOORD_0":7
			},
			"indices":4,
			"material":1
		}]
	},
	{
		"name":"right floor",
		"primitives":[{
			"attributes":{
				"POSITION":9,
				"NORMAL":10,
				"TEXCOORD_0":11
			},
			"indices":8,
			"material":2
		}]
	},
	{
		"name":"right walls.1",
		"primitives":[{
			"attributes":{
				"POSITION":13,
				"NORMAL":14,
				"TEXCOORD_0":15
			},
			"indices":12,
			"material":3
		}]
	}],
	"accessors":[{
		"max":[4841],
		"bufferView":0,
		"type":"SCALAR",
		"componentType":5123,
		"count":10548,
		"byteOffset":0,
		"min":[0]
	},
	{
		"max":[44.93014907836914,
		6.88510274887085,
		32.50993728637695],
		"bufferView":1,
		"type":"VEC3",
		"componentType":5126,
		"count":4842,
		"byteOffset":0,
		"min":[-39.52402114868164,
		-4.5401716232299809,
		-32.31655502319336]
	},
	{
		"max":[0.9997916221618652,
		1.0,
		0.898087739944458],
		"bufferView":1,
		"type":"VEC3",
		"componentType":5126,
		"count":4842,
		"byteOffset":12,
		"min":[-0.9998512268066406,
		-1.0,
		-0.8998214602470398]
	},
	{
		"max":[1.0,
		1.0],
		"bufferView":1,
		"type":"VEC2",
		"componentType":5126,
		"count":4842,
		"byteOffset":24,
		"min":[0.0,
		0.0]
	},
	{
		"max":[231],
		"bufferView":2,
		"type":"SCALAR",
		"componentType":5123,
		"count":696,
		"byteOffset":0,
		"min":[0]
	},
	{
		"max":[-8.161062240600586,
		3.4808361530303957,
		17.488122940063478],
		"bufferView":3,
		"type":"VEC3",
		"componentType":5126,
		"count":232,
		"byteOffset":0,
		"min":[-55.43754577636719,
		3.19716739654541,
		-50.59521484375]
	},
	{
		"max":[0.8979702591896057,
		1.0,
		0.8979700207710266],
		"bufferView":3,
		"type":"VEC3",
		"componentType":5126,
		"count":232,
		"byteOffset":12,
		"min":[-0.8979709148406982,
		-1.0,
		-0.8979703187942505]
	},
	{
		"max":[1.0,
		1.0],
		"bufferView":3,
		"type":"VEC2",
		"componentType":5126,
		"count":232,
		"byteOffset":24,
		"min":[0.0,
		0.0]
	},
	{
		"max":[173],
		"bufferView":4,
		"type":"SCALAR",
		"componentType":5123,
		"count":516,
		"byteOffset":0,
		"min":[0]
	},
	{
		"max":[1227.3299560546876,
		699.9629516601563,
		3971.919677734375],
		"bufferView":5,
		"type":"VEC3",
		"componentType":5126,
		"count":174,
		"byteOffset":0,
		"min":[-1345.7247314453126,
		671.4249877929688,
		-2652.33642578125]
	},
	{
		"max":[1.0,
		1.0,
		1.0],
		"bufferView":5,
		"type":"VEC3",
		"componentType":5126,
		"count":174,
		"byteOffset":12,
		"min":[-1.0,
		-1.0,
		-1.0]
	},
	{
		"max":[1.0,
		1.0],
		"bufferView":5,
		"type":"VEC2",
		"componentType":5126,
		"count":174,
		"byteOffset":24,
		"min":[0.0,
		0.0]
	},
	{
		"max":[920],
		"bufferView":6,
		"type":"SCALAR",
		"componentType":5123,
		"count":1944,
		"byteOffset":0,
		"min":[0]
	},
	{
		"max":[24.413604736328126,
		4.090943813323975,
		25.497827529907228],
		"bufferView":7,
		"type":"VEC3",
		"componentType":5126,
		"count":921,
		"byteOffset":0,
		"min":[-11.034419059753418,
		-1.710241436958313,
		-33.682373046875]
	},
	{
		"max":[0.8979715704917908,
		1.0,
		0.8979707360267639],
		"bufferView":7,
		"type":"VEC3",
		"componentType":5126,
		"count":921,
		"byteOffset":12,
		"min":[-0.897972822189331,
		-1.0,
		-0.8979758620262146]
	},
	{
		"max":[1.0,
		1.0],
		"bufferView":7,
		"type":"VEC2",
		"componentType":5126,
		"count":921,
		"byteOffset":24,
		"min":[0.0,
		0.0]
	}],
	"bufferViews":[{
		"buffer":0,
		"byteOffset":0,
		"byteLength":21096,
		"target":34963
	},
	{
		"buffer":0,
		"byteOffset":21096,
		"byteStride":32,
		"byteLength":154944,
		"target":34962
	},
	{
		"buffer":1,
		"byteOffset":0,
		"byteLength":1392,
		"target":34963
	},
	{
		"buffer":1,
		"byteOffset":1392,
		"byteStride":32,
		"byteLength":7424,
		"target":34962
	},
	{
		"buffer":2,
		"byteOffset":0,
		"byteLength":1032,
		"target":34963
	},
	{
		"buffer":2,
		"byteOffset":1032,
		"byteStride":32,
		"byteLength":5568,
		"target":34962
	},
	{
		"buffer":3,
		"byteOffset":0,
		"byteLength":3888,
		"target":34963
	},
	{
		"buffer":3,
		"byteOffset":3888,
		"byteStride":32,
		"byteLength":29472,
		"target":34962
	}]
}