<?xml version="1.0" encoding="utf-8"?>
<!-- Generator: Adobe Illustrator 26.4.0, SVG Export Plug-In . SVG Version: 6.00 Build 0)  -->
<svg version="1.1" id="Ebene_1" xmlns="http://www.w3.org/2000/svg" xmlns:xlink="http://www.w3.org/1999/xlink" x="0px" y="0px"
	 viewBox="0 0 584.19 97.55" style="enable-background:new 0 0 584.19 97.55;" xml:space="preserve">
<style type="text/css">
	.st0{fill:none;stroke:#BBC5CA;stroke-miterlimit:10;}
	.st1{fill:none;stroke:#D7DAE0;stroke-miterlimit:10;}
	.st2{fill:none;stroke:#CD9648;stroke-miterlimit:10;}
	.st3{fill:none;stroke:#3D505D;stroke-miterlimit:10;}
	.st4{fill:#3D505D;}
	.st5{font-family:'Roboto-Regular';}
	.st6{font-size:6.0451px;}
	.st7{fill:#82888C;}
	.st8{font-size:7.1442px;}
	.st9{fill:#CD9648;}
	.st10{fill:#EAEEF1;}
	.st11{fill:#3F3F3F;}
</style>
<line class="st0" x1="8.47" y1="86.49" x2="574.51" y2="86.49"/>
<line class="st1" x1="9.86" y1="86.49" x2="9.86" y2="14.07"/>
<line class="st1" x1="33.39" y1="86.49" x2="33.39" y2="14.07"/>
<line class="st1" x1="56.92" y1="86.49" x2="56.92" y2="14.07"/>
<line class="st1" x1="80.45" y1="86.49" x2="80.45" y2="14.07"/>
<line class="st1" x1="103.97" y1="86.49" x2="103.97" y2="14.07"/>
<line class="st1" x1="127.5" y1="86.49" x2="127.5" y2="14.07"/>
<line class="st1" x1="151.03" y1="86.49" x2="151.03" y2="14.07"/>
<line class="st2" x1="178.54" y1="86.49" x2="178.54" y2="14.07"/>
<line class="st1" x1="174.55" y1="86.49" x2="174.55" y2="14.07"/>
<line class="st1" x1="198.08" y1="86.49" x2="198.08" y2="14.07"/>
<line class="st1" x1="221.61" y1="86.49" x2="221.61" y2="14.07"/>
<line class="st1" x1="245.13" y1="86.49" x2="245.13" y2="14.07"/>
<line class="st1" x1="268.66" y1="86.49" x2="268.66" y2="14.07"/>
<line class="st1" x1="292.19" y1="86.49" x2="292.19" y2="14.07"/>
<line class="st1" x1="315.72" y1="86.49" x2="315.72" y2="14.07"/>
<line class="st1" x1="339.24" y1="86.49" x2="339.24" y2="14.07"/>
<line class="st1" x1="362.77" y1="86.49" x2="362.77" y2="14.07"/>
<line class="st1" x1="386.3" y1="86.49" x2="386.3" y2="14.07"/>
<line class="st1" x1="409.82" y1="86.49" x2="409.82" y2="14.07"/>
<line class="st1" x1="433.35" y1="86.49" x2="433.35" y2="14.07"/>
<line class="st1" x1="456.88" y1="86.49" x2="456.88" y2="14.07"/>
<line class="st1" x1="480.4" y1="86.49" x2="480.4" y2="14.07"/>
<line class="st1" x1="503.93" y1="86.49" x2="503.93" y2="14.07"/>
<line class="st1" x1="527.46" y1="86.49" x2="527.46" y2="14.07"/>
<line class="st1" x1="550.99" y1="86.49" x2="550.99" y2="14.07"/>
<line class="st1" x1="574.51" y1="86.49" x2="574.51" y2="14.07"/>
<line class="st3" x1="8.47" y1="87.04" x2="525.58" y2="87.04"/>
<text transform="matrix(1 0 0 1 6.3146 92.5752)" class="st4 st5 st6">00</text>
<g>
	<text transform="matrix(1 0 0 1 1.9187 10.9683)" class="st7 st5 st8">Timeline</text>
</g>
<text transform="matrix(1 0 0 1 29.8127 92.5752)" class="st4 st5 st6">01</text>
<text transform="matrix(1 0 0 1 53.3107 92.5752)" class="st4 st5 st6">02</text>
<text transform="matrix(1 0 0 1 76.8088 92.5752)" class="st4 st5 st6">03</text>
<text transform="matrix(1 0 0 1 100.3073 92.5752)" class="st4 st5 st6">04</text>
<text transform="matrix(1 0 0 1 123.8054 92.5752)" class="st4 st5 st6">05</text>
<text transform="matrix(1 0 0 1 147.3039 92.5752)" class="st4 st5 st6">06</text>
<text transform="matrix(1 0 0 1 170.802 92.5752)" class="st4 st5 st6">07</text>
<text transform="matrix(1 0 0 1 194.3005 92.5752)" class="st4 st5 st6">08</text>
<text transform="matrix(1 0 0 1 217.7985 92.5752)" class="st4 st5 st6">09</text>
<text transform="matrix(1 0 0 1 241.2971 92.5752)" class="st4 st5 st6">10</text>
<text transform="matrix(1 0 0 1 382.2858 92.5752)" class="st4 st5 st6">16</text>
<text transform="matrix(1 0 0 1 405.7849 92.5752)" class="st4 st5 st6">17</text>
<text transform="matrix(1 0 0 1 429.2829 92.5752)" class="st4 st5 st6">18</text>
<text transform="matrix(1 0 0 1 452.7809 92.5752)" class="st4 st5 st6">19</text>
<text transform="matrix(1 0 0 1 476.279 92.5752)" class="st4 st5 st6">20</text>
<text transform="matrix(1 0 0 1 499.777 92.5752)" class="st4 st5 st6">21</text>
<text transform="matrix(1 0 0 1 523.2761 92.5752)" class="st4 st5 st6">22</text>
<text transform="matrix(1 0 0 1 546.7741 92.5752)" class="st4 st5 st6">23</text>
<text transform="matrix(1 0 0 1 570.2722 92.5752)" class="st4 st5 st6">24</text>
<text transform="matrix(1 0 0 1 264.7946 92.5752)" class="st4 st5 st6">11</text>
<text transform="matrix(1 0 0 1 288.2932 92.5752)" class="st4 st5 st6">12</text>
<text transform="matrix(1 0 0 1 311.7917 92.5752)" class="st4 st5 st6">13</text>
<text transform="matrix(1 0 0 1 335.2897 92.5752)" class="st4 st5 st6">14</text>
<text transform="matrix(1 0 0 1 358.7878 92.5752)" class="st4 st5 st6">15</text>
<circle class="st9" cx="178.54" cy="86.49" r="1.64"/>
<path class="st10" d="M213.17,13h-69.44c-1.57,0-2.83-1.27-2.83-2.83V5.25c0-1.57,1.27-2.83,2.83-2.83h69.44
	c1.57,0,2.83,1.27,2.83,2.83v4.92C216,11.73,214.74,13,213.17,13z"/>
<g>
	<text transform="matrix(1 0 0 1 146.0378 9.4024)" class="st11 st5 st6">0 visitors online (+0.0%)</text>
</g>
</svg>
